<svg width="24" height="24" viewBox="0 0 24 24" fill="currentColor" xmlns="http://www.w3.org/2000/svg">
<path d="M12 22.2454C17.595 22.2454 22.2454 17.6049 22.2454 12C22.2454 6.40501 17.5847 1.75458 11.9897 1.75458C6.38529 1.75458 1.755 6.40501 1.755 12C1.755 17.6049 6.39515 22.2454 12 22.2454ZM9.80058 17.2234C9.47915 16.902 9.47915 16.3894 9.79072 16.098L14.13 12.0099L9.79072 7.94186C9.459 7.64058 9.49929 7.11815 9.81043 6.80701C10.1121 6.50572 10.5943 6.52586 10.9256 6.83701L15.3253 10.9753C15.918 11.5281 15.9081 12.4924 15.3253 13.0547L10.9256 17.193C10.6243 17.4643 10.0817 17.505 9.80058 17.2234Z" fill="currentColor"/>
</svg>
