<svg width="78" height="78" viewBox="0 0 78 78" fill="none" xmlns="http://www.w3.org/2000/svg">
<g clip-path="url(#clip0_2_2871)">
<path d="M39.0002 0C37.4089 0 35.8828 0.632141 34.7575 1.75736C33.6323 2.88258 33.0002 4.4087 33.0002 6V36C33.0002 37.5913 33.6323 39.1174 34.7575 40.2426C35.8828 41.3679 37.4089 42 39.0002 42C40.5915 42 42.1176 41.3679 43.2428 40.2426C44.368 39.1174 45.0002 37.5913 45.0002 36V6C45.0002 4.4087 44.368 2.88258 43.2428 1.75736C42.1176 0.632141 40.5915 0 39.0002 0V0ZM17.5322 7.782C16.6667 7.89133 15.8516 8.24987 15.1862 8.814C10.6235 12.411 6.9368 16.9967 4.40396 22.2256C1.87112 27.4544 0.558203 33.19 0.564168 39C0.564168 60.174 17.8202 77.439 39.0002 77.439C60.1802 77.439 77.4392 60.174 77.4392 39C77.4392 26.781 71.7332 15.849 62.8142 8.811C61.8817 8.06508 60.691 7.72014 59.5042 7.85207C58.3174 7.98401 57.2316 8.582 56.4857 9.5145C55.7397 10.447 55.3948 11.6376 55.5267 12.8244C55.6587 14.0113 56.2567 15.0971 57.1892 15.843C60.6975 18.5972 63.5334 22.1133 65.4825 26.1252C67.4315 30.1371 68.4426 34.5397 68.4392 39C68.4487 42.8686 67.6937 46.701 66.2176 50.277C64.7415 53.853 62.5734 57.1021 59.8379 59.8377C57.1023 62.5732 53.8532 64.7413 50.2772 66.2174C46.7012 67.6935 42.8688 68.4485 39.0002 68.439C35.1315 68.4485 31.2991 67.6935 27.7231 66.2174C24.1471 64.7413 20.898 62.5732 18.1625 59.8377C15.4269 57.1021 13.2588 53.853 11.7827 50.277C10.3067 46.701 9.55167 42.8686 9.56117 39C9.56117 29.586 13.9742 21.24 20.8112 15.843C21.6056 15.2463 22.1803 14.4033 22.4454 13.4458C22.7106 12.4882 22.6513 11.4697 22.2769 10.5494C21.9026 9.62897 21.2341 8.85837 20.3758 8.35777C19.5175 7.85717 18.5176 7.65472 17.5322 7.782Z" fill="black"/>
</g>
<defs>
<clipPath id="clip0_2_2871">
<rect width="78" height="78" fill="white"/>
</clipPath>
</defs>
</svg>
